<svg xmlns="http://www.w3.org/2000/svg" xmlns:xlink="http://www.w3.org/1999/xlink" width="500" zoomAndPan="magnify" viewBox="0 0 375 374.999991" height="500" preserveAspectRatio="xMidYMid meet" version="1.0"><path fill="#caddff" d="M 281.851562 231.089844 C 279.613281 236.113281 271.160156 249.386719 262.933594 260.210938 C 258.890625 265.53125 254.902344 270.261719 251.734375 273.125 C 250.246094 274.46875 248.40625 275.863281 246.257812 277.257812 C 230.902344 287.234375 199.828125 297.382812 169.261719 292.667969 C 159.867188 291.21875 112.25 282.785156 94.734375 247.753906 C 93.378906 245.039062 80.554688 218.859375 92.625 204.292969 C 96.804688 199.246094 100.175781 199.953125 104.234375 195.792969 C 119.472656 180.1875 90.765625 151.128906 97.902344 130.132812 C 107.511719 101.863281 185.691406 77.628906 238.3125 108.402344 C 282.378906 134.171875 294.214844 203.316406 281.851562 231.089844 " fill-opacity="1" fill-rule="nonzero"/><path fill="#5479f7" d="M 253.125 263.375 C 254.527344 262.597656 263.574219 257.164062 265.851562 251.453125 C 266.167969 250.660156 266.660156 249.429688 266.394531 247.902344 C 265.871094 244.851562 263.015625 244.59375 262.515625 242.269531 C 261.851562 239.203125 266.460938 238 267.9375 231.96875 C 268.296875 230.519531 268.847656 228.269531 267.816406 226.046875 C 266.664062 223.566406 264.722656 223.679688 263.425781 221.429688 C 261.804688 218.621094 263.8125 216.691406 263.371094 212.730469 C 262.910156 208.558594 259.832031 203.0625 255.042969 202.078125 C 250.867188 201.21875 246.96875 204.117188 245.0625 206.726562 C 242.238281 210.582031 242.351562 215.738281 243.910156 219.375 C 246.15625 224.597656 251.28125 226.402344 250.613281 228.285156 C 249.992188 230.035156 245.519531 228.542969 243.625 231.21875 C 242.300781 233.085938 242.703125 236.316406 244.195312 238.304688 C 246.261719 241.054688 249.488281 240.179688 250.363281 242.261719 C 251.28125 244.441406 248.15625 246.417969 247.289062 249.835938 C 246.570312 252.660156 247.515625 257.046875 253.125 263.375 " fill-opacity="1" fill-rule="nonzero"/><path fill="#caddff" d="M 254.519531 261.195312 C 254.46875 261.195312 254.417969 261.183594 254.367188 261.160156 C 254.1875 261.074219 254.109375 260.859375 254.195312 260.679688 C 263.691406 240.742188 256.480469 219.695312 254.046875 213.71875 C 253.96875 213.53125 254.058594 213.320312 254.242188 213.246094 C 254.429688 213.167969 254.636719 213.257812 254.714844 213.445312 C 257.179688 219.488281 264.46875 240.785156 254.847656 260.988281 C 254.785156 261.121094 254.65625 261.195312 254.519531 261.195312 " fill-opacity="1" fill-rule="nonzero"/><path fill="#5479f7" d="M 253.636719 261.679688 C 253.410156 262.167969 253.925781 262.664062 254.398438 262.414062 C 269.519531 254.476562 273.207031 248.410156 273.410156 244.085938 C 273.46875 242.753906 273.28125 240.023438 274.582031 236.636719 C 276.269531 232.25 278.820312 231.03125 281.046875 228.078125 C 285.40625 222.296875 285.742188 213.589844 283.367188 207.289062 C 281.707031 202.886719 277.300781 195.890625 271.175781 195.761719 C 268.589844 195.710938 264.996094 196.867188 264.230469 199.21875 C 263.136719 202.585938 269.222656 205.289062 268.777344 210.664062 C 268.535156 213.597656 266.667969 213.636719 266.4375 216.753906 C 266.074219 221.667969 270.542969 223.859375 269.480469 226.675781 C 268.449219 229.40625 263.949219 228.03125 262.179688 231.167969 C 260.164062 234.742188 264.386719 238.957031 262.113281 242.128906 C 260.761719 244.015625 258.988281 242.910156 257.191406 244.917969 C 255.007812 247.363281 256.441406 250.332031 255.492188 255.871094 C 255.097656 258.179688 254.367188 260.101562 253.636719 261.679688 " fill-opacity="1" fill-rule="nonzero"/><path fill="#caddff" d="M 254.78125 261.648438 C 254.691406 261.648438 254.605469 261.617188 254.535156 261.554688 C 254.386719 261.417969 254.378906 261.1875 254.515625 261.042969 C 264.089844 250.734375 271.730469 237.730469 274.953125 226.261719 C 279.300781 210.78125 274.675781 201.398438 274.628906 201.304688 C 274.539062 201.128906 274.609375 200.910156 274.785156 200.820312 C 274.960938 200.726562 275.179688 200.800781 275.269531 200.976562 C 275.320312 201.070312 280.082031 210.683594 275.648438 226.460938 C 272.398438 238.03125 264.695312 251.144531 255.046875 261.535156 C 254.972656 261.613281 254.878906 261.648438 254.78125 261.648438 " fill-opacity="1" fill-rule="nonzero"/><path fill="#ffffff" d="M 252.476562 181.632812 C 252.476562 224.992188 217.773438 260.140625 174.96875 260.140625 C 132.160156 260.140625 97.460938 224.992188 97.460938 181.632812 C 97.460938 138.277344 132.160156 103.125 174.96875 103.125 C 217.773438 103.125 252.476562 138.277344 252.476562 181.632812 " fill-opacity="1" fill-rule="nonzero"/><path fill="#caddff" d="M 160.074219 110.148438 C 159.753906 110.621094 160.703125 112.214844 162.585938 112.214844 C 164.464844 112.214844 165.40625 111.894531 166.191406 113.960938 C 166.976562 116.027344 165.878906 123.019531 166.976562 125.5625 C 168.074219 128.105469 169.957031 129.695312 171.371094 128.265625 C 172.78125 126.835938 172.625 123.019531 174.351562 122.066406 C 176.078125 121.113281 182.351562 117.296875 182.667969 114.121094 C 182.980469 110.941406 180.785156 108.558594 175.292969 107.925781 C 169.800781 107.289062 162.425781 106.652344 160.074219 110.148438 " fill-opacity="1" fill-rule="nonzero"/><path fill="#99b9ff" d="M 134.902344 180.648438 C 134.082031 181.0625 133.589844 181.859375 133.628906 182.710938 C 133.753906 185.375 132.640625 192.015625 130.296875 194.136719 C 127.316406 196.839844 128.414062 201.707031 128.367188 203.671875 C 128.273438 207.664062 128.699219 209.441406 133.4375 211.347656 C 138.171875 213.253906 140.027344 213.363281 140.378906 217.175781 C 140.730469 220.992188 141.273438 235.722656 142.679688 239.539062 C 144.082031 243.351562 147.0625 249.550781 148.640625 250.980469 C 150.222656 252.410156 153.90625 253.203125 151.625 247.800781 C 149.34375 242.398438 147.941406 239.855469 150.570312 236.835938 C 153.203125 233.816406 157.589844 226.824219 157.941406 224.121094 C 158.289062 221.421875 159.867188 219.832031 161.273438 219.515625 C 162.675781 219.195312 165.65625 218.242188 166.535156 217.289062 C 167.410156 216.335938 165.65625 213.632812 165.128906 211.25 C 164.605469 208.867188 164.605469 207.4375 168.992188 205.53125 C 173.375 203.621094 171.269531 198.21875 165.308594 196.789062 C 159.34375 195.359375 155.660156 192.339844 156.359375 189.320312 C 157.0625 186.300781 152.324219 186.617188 149.519531 185.1875 C 146.710938 183.757812 146.796875 181.511719 143.671875 180.441406 C 139.453125 178.992188 136.488281 179.847656 134.902344 180.648438 " fill-opacity="1" fill-rule="nonzero"/><path fill="#99b9ff" d="M 231.398438 177.316406 C 230.078125 175.308594 230.242188 172.125 233.546875 167.773438 C 236.144531 164.355469 232.417969 160.9375 230.703125 159.628906 C 230.386719 159.386719 230.527344 158.886719 230.917969 158.84375 C 233.050781 158.597656 237.988281 159.324219 240.160156 170.453125 C 242.96875 184.847656 244.125 179.828125 245.613281 178.152344 C 247.101562 176.476562 244.316406 173.351562 247.101562 170.117188 C 248.855469 168.078125 249.746094 165.105469 250.195312 162.679688 C 244.605469 139.84375 229.15625 120.953125 208.679688 110.921875 C 208.710938 113.425781 208.113281 122.160156 198.015625 118.558594 C 198.015625 118.558594 191.738281 115.546875 193.222656 127.765625 C 194.710938 139.984375 199.835938 126.929688 200.828125 126.425781 C 201.816406 125.925781 204.460938 125.253906 203.304688 133.457031 C 203.304688 133.457031 203.140625 136.304688 198.015625 135.800781 C 192.894531 135.300781 191.902344 137.808594 191.902344 139.148438 C 191.902344 140.488281 192.398438 144.003906 189.589844 146.515625 C 186.777344 149.023438 187.605469 155.554688 191.40625 153.378906 C 195.207031 151.199219 197.851562 144.335938 201.320312 143.667969 C 204.792969 143 207.933594 147.519531 211.238281 146.347656 C 214.542969 145.175781 213.054688 139.484375 214.707031 139.484375 C 216.359375 139.484375 219.832031 142.832031 219.335938 145.34375 C 218.839844 147.851562 213.71875 149.023438 215.039062 152.039062 C 216.359375 155.050781 219.171875 154.046875 219.996094 156.054688 C 220.824219 158.066406 215.863281 160.40625 211.898438 157.898438 C 207.933594 155.386719 207.269531 159.070312 205.289062 157.394531 C 203.304688 155.722656 203.140625 152.207031 200.332031 153.378906 C 197.519531 154.550781 195.867188 156.894531 192.230469 158.566406 C 188.597656 160.242188 185.621094 162.417969 185.621094 164.761719 C 185.621094 167.105469 186.945312 169.613281 186.28125 173.296875 C 185.621094 176.980469 184.464844 187.023438 196.363281 185.015625 C 208.261719 183.007812 206.773438 189.199219 206.773438 189.871094 C 206.773438 190.539062 206.609375 199.242188 207.765625 200.75 C 208.925781 202.257812 211.570312 206.609375 207.765625 212.300781 C 203.964844 217.992188 205.453125 230.714844 208.925781 229.042969 C 212.394531 227.367188 215.863281 220.839844 220.160156 217.492188 C 224.457031 214.144531 230.410156 199.578125 227.929688 195.058594 C 225.449219 190.539062 231.398438 186.859375 232.226562 183.84375 C 233.054688 180.832031 232.722656 179.324219 231.398438 177.316406 " fill-opacity="1" fill-rule="nonzero"/><path fill="#99b9ff" d="M 119.472656 126.625 C 119.542969 129.414062 119.292969 133.140625 117.511719 135.984375 C 112.140625 144.566406 112.316406 148.855469 111.796875 157.4375 C 111.277344 166.019531 123.09375 181.148438 126.039062 182.738281 C 128.984375 184.328125 129.4375 180.546875 129.4375 177.527344 C 129.4375 174.507812 128.179688 170.886719 126.449219 167.390625 C 124.714844 163.890625 124.714844 161.667969 125.234375 160.238281 C 125.753906 158.808594 127.832031 158.332031 129.21875 159.761719 C 130.605469 161.191406 133.933594 162.460938 135.535156 161.566406 C 137.5 160.46875 136.734375 156.167969 137.429688 154.734375 C 138.121094 153.304688 141.933594 152.351562 143.492188 149.332031 C 145.050781 146.3125 147.648438 145.042969 150.765625 143.613281 C 153.882812 142.183594 156.652344 141.546875 157.171875 140.59375 C 157.691406 139.640625 157 137.414062 157.867188 134.871094 C 158.730469 132.328125 160.8125 129.308594 159.945312 128.039062 C 159.078125 126.765625 156.480469 124.699219 151.628906 127.878906 C 146.78125 131.058594 145.570312 131.058594 144.183594 128.671875 C 142.796875 126.289062 145.742188 120.09375 151.804688 120.09375 C 157.867188 120.09375 159.078125 118.183594 159.25 116.753906 C 159.425781 115.324219 157.519531 113.734375 155.441406 113.417969 C 153.363281 113.097656 153.015625 114.210938 144.355469 117.390625 C 138.578125 119.511719 133.207031 118.324219 130.464844 117.757812 C 126.527344 120.421875 122.851562 123.390625 119.472656 126.625 " fill-opacity="1" fill-rule="nonzero"/><path fill="#99b9ff" d="M 248.820312 195.777344 C 247.652344 195.515625 247.910156 198.414062 246.351562 198.941406 C 244.789062 199.46875 244.136719 200.257812 244.527344 203.160156 C 244.921875 206.058594 244.269531 209.878906 242.707031 211.328125 C 241.144531 212.777344 238.933594 213.832031 238.804688 217.390625 C 238.671875 220.949219 235.421875 224.375 233.46875 225.5625 C 231.519531 226.75 228.523438 228.59375 228.523438 231.625 C 228.523438 233.578125 228.472656 236.070312 228.921875 237.992188 C 239.25 227.84375 246.796875 214.8125 250.296875 200.175781 C 249.992188 198.230469 249.492188 195.929688 248.820312 195.777344 " fill-opacity="1" fill-rule="nonzero"/><path fill="#5479f7" d="M 174.96875 260.503906 C 158.734375 260.503906 143.179688 255.496094 129.984375 246.019531 C 129.820312 245.902344 129.785156 245.675781 129.902344 245.515625 C 130.015625 245.351562 130.242188 245.316406 130.40625 245.429688 C 143.476562 254.820312 158.886719 259.78125 174.96875 259.78125 C 187.867188 259.78125 200.632812 256.492188 211.882812 250.269531 C 212.058594 250.171875 212.277344 250.238281 212.375 250.414062 C 212.46875 250.585938 212.40625 250.808594 212.230469 250.902344 C 200.875 257.183594 187.992188 260.503906 174.96875 260.503906 " fill-opacity="1" fill-rule="nonzero"/><path fill="#5479f7" d="M 251.339844 166.746094 C 251.171875 166.746094 251.019531 166.625 250.984375 166.453125 C 250.203125 162.449219 249.089844 158.460938 247.675781 154.597656 C 243.222656 142.417969 235.746094 131.503906 226.054688 123.03125 C 225.902344 122.898438 225.890625 122.671875 226.019531 122.519531 C 226.152344 122.367188 226.378906 122.355469 226.53125 122.484375 C 236.308594 131.039062 243.859375 142.058594 248.355469 154.351562 C 249.78125 158.25 250.90625 162.273438 251.695312 166.3125 C 251.734375 166.507812 251.605469 166.699219 251.410156 166.738281 C 251.386719 166.742188 251.363281 166.746094 251.339844 166.746094 " fill-opacity="1" fill-rule="nonzero"/><path fill="#5479f7" d="M 98.914062 197.191406 C 98.75 197.191406 98.605469 197.082031 98.5625 196.917969 C 98.035156 194.867188 97.402344 188.59375 97.375 188.328125 C 97.191406 186.113281 97.097656 183.863281 97.097656 181.632812 C 97.097656 160.570312 105.199219 140.761719 119.90625 125.867188 C 134.613281 110.96875 154.167969 102.765625 174.96875 102.765625 C 190.277344 102.765625 205.09375 107.261719 217.8125 115.765625 C 217.976562 115.875 218.023438 116.101562 217.910156 116.265625 C 217.800781 116.433594 217.578125 116.476562 217.410156 116.367188 C 204.808594 107.941406 190.132812 103.488281 174.96875 103.488281 C 132.429688 103.488281 97.820312 138.542969 97.820312 181.632812 C 97.820312 183.84375 97.914062 186.074219 98.09375 188.261719 C 98.101562 188.320312 98.75 194.738281 99.261719 196.738281 C 99.3125 196.933594 99.195312 197.128906 99.003906 197.179688 C 98.972656 197.1875 98.941406 197.191406 98.914062 197.191406 " fill-opacity="1" fill-rule="nonzero"/><path fill="#ffffff" d="M 134.898438 248.417969 C 135.535156 248.375 136 247.710938 135.792969 247.148438 C 134.550781 243.78125 134.179688 241.859375 134.269531 240.121094 C 134.441406 236.617188 136.664062 236.730469 135.324219 232.832031 C 134.5 230.425781 131.816406 230.980469 130.652344 228.453125 C 129.265625 225.4375 131.519531 223.359375 130.496094 220.785156 C 129.25 217.652344 125.15625 218.824219 120.804688 216.5 C 115.175781 213.488281 116.859375 208.757812 112.714844 205.0625 C 105.988281 199.0625 91.222656 199.699219 87.960938 205.152344 C 84.882812 210.292969 92.03125 220.035156 100.992188 224.109375 C 110.546875 228.453125 115.148438 225.269531 120.832031 230.734375 C 124.757812 234.511719 120.964844 238.125 126.460938 244.503906 C 129.585938 248.132812 132.550781 248.578125 134.898438 248.417969 " fill-opacity="1" fill-rule="nonzero"/><path fill="#ffffff" d="M 134.898438 248.417969 C 135.535156 248.375 136 247.710938 135.792969 247.148438 C 134.550781 243.78125 134.179688 241.859375 134.269531 240.121094 C 134.441406 236.617188 136.664062 236.730469 135.324219 232.832031 C 134.5 230.425781 131.816406 230.980469 130.652344 228.453125 C 129.265625 225.4375 131.519531 223.359375 130.496094 220.785156 C 129.25 217.652344 125.15625 218.824219 120.804688 216.5 C 115.175781 213.488281 116.859375 208.757812 112.714844 205.0625 C 105.988281 199.0625 93.230469 195.992188 87.960938 205.152344 C 84.972656 210.347656 92.03125 220.035156 100.992188 224.109375 C 110.546875 228.453125 115.148438 225.269531 120.832031 230.734375 C 124.757812 234.511719 120.964844 238.125 126.460938 244.503906 C 129.585938 248.132812 132.550781 248.578125 134.898438 248.417969 " fill-opacity="1" fill-rule="nonzero"/><path fill="#000000" d="M 98.507812 199.726562 C 97.71875 199.726562 96.933594 199.785156 96.160156 199.910156 C 92.671875 200.472656 90.019531 202.296875 88.273438 205.332031 C 87.484375 206.703125 87.417969 208.511719 88.078125 210.5625 C 89.664062 215.5 95.15625 221.058594 101.144531 223.78125 C 105.363281 225.699219 108.578125 226.128906 111.417969 226.507812 C 115.011719 226.988281 117.851562 227.371094 121.082031 230.472656 C 122.988281 232.308594 123.171875 234.152344 123.367188 236.101562 C 123.589844 238.359375 123.84375 240.914062 126.734375 244.265625 C 129.90625 247.949219 132.898438 248.195312 134.871094 248.054688 C 135.074219 248.042969 135.265625 247.925781 135.382812 247.746094 C 135.480469 247.589844 135.507812 247.417969 135.453125 247.273438 C 134.246094 243.996094 133.8125 241.988281 133.90625 240.105469 C 133.984375 238.59375 134.417969 237.722656 134.804688 236.953125 C 135.316406 235.921875 135.726562 235.109375 134.984375 232.953125 C 134.613281 231.875 133.835938 231.46875 132.929688 231 C 132.003906 230.519531 130.953125 229.972656 130.324219 228.601562 C 129.535156 226.890625 129.855469 225.433594 130.136719 224.144531 C 130.375 223.054688 130.597656 222.019531 130.160156 220.917969 C 129.5 219.261719 127.953125 218.941406 125.808594 218.496094 C 124.246094 218.171875 122.476562 217.804688 120.632812 216.820312 C 117.355469 215.066406 116.449219 212.703125 115.574219 210.417969 C 114.910156 208.6875 114.222656 206.894531 112.472656 205.332031 C 109.15625 202.375 103.789062 199.726562 98.507812 199.726562 Z M 134.097656 248.808594 C 132.003906 248.808594 129.160156 248.1875 126.1875 244.738281 C 123.148438 241.214844 122.882812 238.535156 122.648438 236.175781 C 122.449219 234.203125 122.292969 232.644531 120.582031 230.996094 C 117.523438 228.054688 114.785156 227.6875 111.320312 227.226562 C 108.433594 226.839844 105.160156 226.402344 100.84375 224.4375 C 94.589844 221.597656 89.058594 215.980469 87.390625 210.78125 C 86.667969 208.53125 86.753906 206.523438 87.648438 204.972656 C 89.480469 201.785156 92.382812 199.789062 96.042969 199.195312 C 102.261719 198.1875 109.015625 201.28125 112.953125 204.792969 C 114.835938 206.472656 115.554688 208.347656 116.25 210.160156 C 117.117188 212.417969 117.933594 214.554688 120.976562 216.179688 C 122.726562 217.117188 124.441406 217.472656 125.957031 217.785156 C 128.140625 218.238281 130.027344 218.632812 130.832031 220.652344 C 131.351562 221.960938 131.09375 223.148438 130.839844 224.300781 C 130.558594 225.589844 130.292969 226.808594 130.980469 228.300781 C 131.503906 229.445312 132.359375 229.886719 133.261719 230.355469 C 134.21875 230.855469 135.203125 231.367188 135.667969 232.714844 C 136.507812 235.160156 135.992188 236.1875 135.449219 237.277344 C 135.078125 238.015625 134.695312 238.78125 134.628906 240.140625 C 134.539062 241.914062 134.960938 243.847656 136.132812 247.023438 C 136.265625 247.382812 136.214844 247.789062 135.988281 248.136719 C 135.75 248.507812 135.351562 248.75 134.921875 248.777344 C 134.664062 248.796875 134.386719 248.808594 134.097656 248.808594 " fill-opacity="1" fill-rule="nonzero"/><path fill="#caddff" d="M 134.425781 248.382812 C 134.332031 248.382812 134.242188 248.347656 134.171875 248.28125 C 130.820312 245.042969 129.246094 240.5625 127.574219 235.824219 C 126.230469 232.003906 124.835938 228.054688 122.40625 224.140625 C 114.402344 211.25 92.382812 209.316406 92.160156 209.296875 C 91.960938 209.28125 91.8125 209.105469 91.828125 208.90625 C 91.847656 208.707031 92.019531 208.558594 92.21875 208.578125 C 92.273438 208.582031 97.917969 209.058594 104.488281 211.148438 C 110.574219 213.085938 118.726562 216.847656 123.019531 223.757812 C 125.492188 227.738281 126.898438 231.726562 128.257812 235.582031 C 129.898438 240.242188 131.445312 244.640625 134.675781 247.757812 C 134.820312 247.898438 134.824219 248.125 134.683594 248.269531 C 134.613281 248.34375 134.519531 248.382812 134.425781 248.382812 " fill-opacity="1" fill-rule="nonzero"/><path fill="#99b9ff" d="M 132.960938 248.023438 C 133.527344 247.796875 133.71875 247.089844 133.347656 246.605469 C 131.71875 244.476562 128.835938 241.222656 127.214844 237.5 C 124.15625 230.480469 126.222656 227.496094 121.316406 224.789062 C 117.882812 222.898438 116.074219 227.046875 111.925781 224.910156 C 109.101562 223.453125 109.011719 221.089844 105.613281 220.082031 C 104.964844 219.886719 102.875 219.300781 100.742188 220.152344 C 98.761719 220.941406 98.5625 222.246094 96.546875 224.296875 C 92.890625 228.011719 90.085938 227.246094 89.253906 229.671875 C 88.519531 231.816406 89.785156 235.148438 92.011719 236.234375 C 96.199219 238.28125 101.136719 231.066406 105.222656 232.953125 C 108.714844 234.5625 107.039062 240.714844 110.882812 242.53125 C 114.347656 244.167969 117.726562 240.128906 120.867188 242.078125 C 123.265625 243.574219 122.410156 246.628906 124.753906 248.261719 C 126.882812 249.742188 130.347656 249.050781 132.960938 248.023438 " fill-opacity="1" fill-rule="nonzero"/><path fill="#caddff" d="M 131.503906 247.289062 C 131.4375 247.289062 131.371094 247.269531 131.3125 247.234375 C 128.34375 245.355469 126.792969 243.078125 125 240.4375 C 123.253906 237.875 121.277344 234.972656 117.515625 231.6875 C 107.265625 222.746094 94.914062 230.433594 94.789062 230.511719 C 94.621094 230.617188 94.398438 230.570312 94.289062 230.398438 C 94.183594 230.230469 94.234375 230.007812 94.402344 229.902344 C 94.53125 229.816406 97.65625 227.851562 102.140625 226.996094 C 106.296875 226.207031 112.417969 226.28125 117.988281 231.140625 C 121.824219 234.488281 123.828125 237.433594 125.597656 240.03125 C 127.347656 242.601562 128.859375 244.824219 131.695312 246.621094 C 131.867188 246.726562 131.914062 246.953125 131.808594 247.121094 C 131.742188 247.230469 131.625 247.289062 131.503906 247.289062 " fill-opacity="1" fill-rule="nonzero"/><path fill="#5479f7" d="M 118.929688 241.171875 C 119.644531 241.171875 120.355469 241.335938 121.058594 241.773438 C 122.386719 242.597656 122.792969 243.847656 123.191406 245.050781 C 123.554688 246.171875 123.902344 247.230469 124.960938 247.964844 C 127.292969 249.585938 131.238281 248.308594 132.828125 247.683594 C 132.992188 247.621094 133.109375 247.488281 133.15625 247.320312 C 133.203125 247.148438 133.171875 246.96875 133.0625 246.824219 C 132.769531 246.441406 132.4375 246.027344 132.078125 245.574219 C 130.457031 243.535156 128.230469 240.742188 126.882812 237.644531 C 125.703125 234.941406 125.273438 232.820312 124.929688 231.109375 C 124.371094 228.363281 124.035156 226.703125 121.140625 225.105469 C 119.636719 224.277344 118.496094 224.714844 117.175781 225.21875 C 115.714844 225.78125 114.054688 226.414062 111.761719 225.230469 C 110.457031 224.558594 109.71875 223.710938 109 222.890625 C 108.132812 221.898438 107.316406 220.960938 105.511719 220.425781 C 103.382812 219.796875 101.816406 220.113281 100.875 220.488281 C 99.714844 220.949219 99.226562 221.589844 98.492188 222.554688 C 98.054688 223.132812 97.558594 223.785156 96.804688 224.550781 C 94.929688 226.457031 93.300781 227.199219 91.992188 227.796875 C 90.769531 228.355469 89.960938 228.722656 89.597656 229.789062 C 88.890625 231.855469 90.1875 234.945312 92.167969 235.910156 C 94.117188 236.863281 96.277344 235.613281 98.5625 234.292969 C 100.835938 232.976562 103.1875 231.617188 105.375 232.625 C 107.234375 233.484375 107.746094 235.492188 108.238281 237.4375 C 108.746094 239.445312 109.226562 241.347656 111.039062 242.203125 C 112.609375 242.945312 114.15625 242.425781 115.792969 241.875 C 116.824219 241.527344 117.878906 241.171875 118.929688 241.171875 Z M 127.90625 249.472656 C 126.707031 249.472656 125.515625 249.234375 124.546875 248.558594 C 123.292969 247.683594 122.890625 246.460938 122.503906 245.277344 C 122.132812 244.144531 121.78125 243.074219 120.675781 242.386719 C 119.222656 241.484375 117.667969 242.007812 116.023438 242.558594 C 114.320312 243.132812 112.5625 243.722656 110.730469 242.859375 C 108.609375 241.855469 108.0625 239.699219 107.535156 237.613281 C 107.066406 235.753906 106.621094 233.996094 105.074219 233.28125 C 103.226562 232.429688 101.136719 233.636719 98.921875 234.917969 C 96.574219 236.277344 94.144531 237.683594 91.851562 236.558594 C 89.546875 235.433594 88.089844 231.964844 88.914062 229.554688 C 89.378906 228.195312 90.398438 227.730469 91.691406 227.140625 C 92.945312 226.566406 94.507812 225.851562 96.289062 224.042969 C 97.011719 223.308594 97.492188 222.675781 97.917969 222.117188 C 98.667969 221.132812 99.261719 220.351562 100.609375 219.8125 C 101.65625 219.398438 103.390625 219.042969 105.714844 219.734375 C 107.722656 220.328125 108.648438 221.386719 109.542969 222.414062 C 110.246094 223.21875 110.910156 223.980469 112.09375 224.585938 C 114.101562 225.621094 115.46875 225.097656 116.917969 224.542969 C 118.28125 224.023438 119.691406 223.480469 121.488281 224.472656 C 124.675781 226.230469 125.058594 228.117188 125.636719 230.96875 C 125.976562 232.640625 126.398438 234.722656 127.546875 237.355469 C 128.855469 240.363281 131.046875 243.117188 132.644531 245.125 C 133.003906 245.578125 133.339844 246 133.636719 246.386719 C 133.882812 246.707031 133.960938 247.121094 133.851562 247.511719 C 133.746094 247.902344 133.46875 248.210938 133.09375 248.359375 L 132.960938 248.023438 L 133.09375 248.359375 C 132.023438 248.777344 129.949219 249.472656 127.90625 249.472656 " fill-opacity="1" fill-rule="nonzero"/><path fill="#000000" d="M 128.523438 211.148438 C 128.269531 211.371094 131.292969 223.328125 135.917969 230.808594 C 140.539062 238.28125 139 245.976562 135.410156 246.976562 C 131.820312 247.976562 130.882812 248.78125 131.320312 249.753906 C 131.761719 250.730469 144.492188 252.710938 148.507812 250.210938 C 152.523438 247.710938 157.085938 226.1875 157.648438 217.074219 C 158.207031 207.960938 138.382812 202.652344 128.523438 211.148438 " fill-opacity="1" fill-rule="nonzero"/><path fill="#caddff" d="M 128.761719 211.421875 C 128.761719 211.421875 128.761719 211.425781 128.761719 211.425781 C 128.761719 211.425781 128.761719 211.425781 128.761719 211.421875 Z M 131.640625 249.582031 C 132.515625 250.417969 144.488281 252.289062 148.316406 249.902344 C 152.125 247.53125 156.726562 226.144531 157.289062 217.050781 C 157.464844 214.144531 155.378906 211.390625 151.5625 209.492188 C 145.191406 206.328125 134.996094 206.160156 128.875 211.328125 C 129.003906 212.726562 131.878906 223.589844 136.222656 230.617188 C 139.640625 236.144531 139.566406 241.402344 138.464844 244.222656 C 137.824219 245.871094 136.773438 246.972656 135.507812 247.324219 C 133.160156 247.976562 131.890625 248.570312 131.628906 249.128906 C 131.585938 249.222656 131.546875 249.359375 131.640625 249.582031 Z M 141.832031 251.792969 C 138.089844 251.792969 134.09375 251.171875 132.265625 250.617188 C 131.296875 250.324219 131.082031 250.101562 130.992188 249.902344 C 130.820312 249.527344 130.816406 249.164062 130.972656 248.820312 C 131.34375 248.027344 132.644531 247.371094 135.3125 246.628906 C 136.355469 246.335938 137.234375 245.390625 137.792969 243.960938 C 138.835938 241.292969 138.886719 236.296875 135.609375 230.996094 C 133.128906 226.988281 131.214844 221.917969 130.046875 218.371094 C 129.46875 216.609375 128.941406 214.824219 128.570312 213.351562 C 128.007812 211.117188 128.113281 211.027344 128.289062 210.875 C 132.078125 207.609375 136.761719 206.71875 140.023438 206.546875 C 144.179688 206.324219 148.503906 207.164062 151.882812 208.84375 C 155.972656 210.875 158.207031 213.886719 158.007812 217.097656 C 157.480469 225.664062 153.054688 247.804688 148.699219 250.515625 C 147.1875 251.460938 144.578125 251.792969 141.832031 251.792969 " fill-opacity="1" fill-rule="nonzero"/><path fill="#000000" d="M 203.808594 212.179688 C 203.808594 212.179688 208.84375 227.789062 212.050781 238.433594 C 215.257812 249.074219 207.949219 253.667969 198.378906 253.628906 C 188.808594 253.589844 195.863281 249.386719 196.507812 248.164062 C 197.15625 246.945312 184.71875 219.371094 184.71875 219.371094 L 203.808594 212.179688 " fill-opacity="1" fill-rule="nonzero"/><path fill="#caddff" d="M 185.207031 219.574219 C 185.878906 221.070312 188.578125 227.09375 191.1875 233.167969 C 197.3125 247.417969 197 248.015625 196.828125 248.335938 C 196.667969 248.644531 196.25 249.03125 195.722656 249.519531 C 194.847656 250.332031 193.527344 251.5625 193.796875 252.25 C 193.941406 252.625 194.730469 253.253906 198.382812 253.265625 C 198.421875 253.265625 198.460938 253.265625 198.503906 253.265625 C 204.191406 253.265625 208.539062 251.632812 210.757812 248.652344 C 212.648438 246.121094 212.964844 242.714844 211.707031 238.535156 C 208.804688 228.910156 204.351562 215.058594 203.578125 212.652344 Z M 198.5 253.992188 C 198.460938 253.992188 198.417969 253.992188 198.378906 253.992188 C 195.183594 253.976562 193.511719 253.507812 193.125 252.515625 C 192.675781 251.367188 194.09375 250.050781 195.230469 248.988281 C 195.632812 248.617188 196.046875 248.234375 196.171875 248.023438 C 196.285156 246.542969 189.019531 229.789062 184.386719 219.519531 L 184.230469 219.167969 L 204.035156 211.707031 L 204.152344 212.070312 C 204.203125 212.226562 209.226562 227.804688 212.398438 238.328125 C 213.726562 242.738281 213.371094 246.359375 211.335938 249.085938 C 208.980469 252.25 204.421875 253.992188 198.5 253.992188 " fill-opacity="1" fill-rule="nonzero"/><path fill="#000000" d="M 111.277344 200.125 C 111.277344 200.125 107.558594 197.078125 110.242188 195.078125 C 112.929688 193.074219 114.988281 197.21875 114.988281 197.21875 L 111.277344 200.125 " fill-opacity="1" fill-rule="nonzero"/><path fill="#caddff" d="M 111.726562 194.890625 C 111.304688 194.890625 110.886719 195.050781 110.457031 195.367188 C 109.914062 195.773438 109.644531 196.234375 109.628906 196.773438 C 109.601562 197.957031 110.792969 199.191406 111.292969 199.652344 L 114.523438 197.125 C 114.1875 196.554688 113.292969 195.214844 112.140625 194.941406 C 112 194.90625 111.863281 194.890625 111.726562 194.890625 Z M 111.273438 200.585938 L 111.046875 200.40625 C 110.957031 200.332031 108.867188 198.597656 108.90625 196.757812 C 108.925781 195.992188 109.300781 195.328125 110.027344 194.785156 C 110.765625 194.238281 111.53125 194.050781 112.308594 194.238281 C 114.105469 194.667969 115.261719 196.960938 115.3125 197.058594 L 115.441406 197.324219 L 111.273438 200.585938 " fill-opacity="1" fill-rule="nonzero"/><path fill="#000000" d="M 207.996094 195.992188 C 208.640625 195.917969 215.417969 198.511719 215.839844 205.367188 C 216.261719 212.226562 208.734375 206.542969 208.734375 206.542969 L 207.996094 195.992188 " fill-opacity="1" fill-rule="nonzero"/><path fill="#caddff" d="M 209.082031 206.351562 C 210.261719 207.207031 213.191406 208.964844 214.601562 208.207031 C 215.277344 207.84375 215.570312 206.898438 215.480469 205.390625 C 215.117188 199.464844 209.886719 196.914062 208.390625 196.4375 Z M 213.777344 209.109375 C 211.566406 209.109375 208.660156 206.941406 208.515625 206.832031 L 208.386719 206.730469 L 207.613281 195.675781 L 207.953125 195.632812 C 208.484375 195.570312 210.535156 196.382812 212.332031 197.886719 C 213.972656 199.257812 215.972656 201.664062 216.199219 205.347656 C 216.3125 207.160156 215.890625 208.335938 214.945312 208.84375 C 214.597656 209.03125 214.199219 209.109375 213.777344 209.109375 " fill-opacity="1" fill-rule="nonzero"/><path fill="#000000" d="M 112.292969 218.640625 C 112.292969 218.640625 118.9375 220.320312 122.960938 218.421875 C 126.984375 216.523438 136.308594 207.765625 141.835938 211.03125 C 147.367188 214.296875 151.671875 225.691406 151.671875 225.691406 C 151.671875 225.691406 149.710938 233.386719 146.457031 237.101562 C 143.203125 240.816406 142.78125 243.140625 146.289062 246.660156 C 149.800781 250.179688 151.8125 252.050781 155.304688 252.453125 C 158.800781 252.855469 158.820312 248.492188 158.109375 245.859375 C 157.398438 243.226562 157.398438 243.226562 157.398438 243.226562 C 157.398438 243.226562 164.984375 241.148438 168.222656 235.679688 C 171.457031 230.210938 171.664062 229.769531 171.664062 229.769531 L 180.226562 228.105469 C 180.226562 228.105469 180.03125 236.878906 177.148438 239.757812 C 174.269531 242.640625 167.273438 249.15625 168.238281 251.210938 C 169.199219 253.261719 181.535156 256.191406 184.707031 253.089844 C 187.882812 249.988281 203.488281 229.273438 207.046875 222.324219 C 210.601562 215.375 214.054688 203.820312 210.324219 196.191406 C 206.597656 188.5625 196.953125 178.476562 176.390625 176.054688 C 155.832031 173.632812 156.296875 171.578125 151.609375 170.578125 C 146.921875 169.578125 122.566406 191.933594 114.214844 194.925781 C 107.253906 197.417969 102.679688 213.789062 101.351562 219.160156 C 101.089844 220.214844 101.664062 221.308594 102.664062 221.628906 C 104.8125 222.3125 108.652344 222.671875 112.292969 218.640625 " fill-opacity="1" fill-rule="nonzero"/><path fill="#caddff" d="M 180.601562 227.664062 L 180.589844 228.113281 C 180.582031 228.476562 180.355469 237.066406 177.40625 240.015625 C 177.089844 240.328125 176.730469 240.6875 176.332031 241.074219 C 173.566406 243.796875 167.8125 249.457031 168.5625 251.054688 C 168.902344 251.777344 171.570312 252.976562 175.292969 253.652344 C 178.683594 254.269531 182.871094 254.378906 184.457031 252.832031 C 187.523438 249.835938 203.144531 229.160156 206.726562 222.160156 C 210.476562 214.832031 213.582031 203.675781 210 196.351562 C 207.511719 191.253906 199.246094 179.113281 176.347656 176.414062 C 161.488281 174.664062 157.605469 173.113281 154.769531 171.984375 C 153.722656 171.566406 152.816406 171.203125 151.535156 170.929688 C 149.171875 170.429688 140.425781 177.054688 132.710938 182.90625 C 125.597656 188.292969 118.242188 193.867188 114.335938 195.265625 C 107.507812 197.710938 102.9375 214.242188 101.703125 219.25 C 101.484375 220.128906 101.957031 221.023438 102.777344 221.28125 C 105.128906 222.035156 108.644531 222.140625 112.027344 218.398438 L 112.171875 218.238281 L 112.382812 218.292969 C 112.449219 218.308594 118.949219 219.914062 122.808594 218.097656 C 123.8125 217.621094 125.175781 216.695312 126.75 215.625 C 131.375 212.480469 137.710938 208.175781 142.019531 210.71875 C 147.597656 214.011719 151.832031 225.09375 152.011719 225.5625 L 152.050781 225.671875 L 152.023438 225.78125 C 151.941406 226.097656 150 233.601562 146.726562 237.339844 C 143.382812 241.160156 143.34375 243.195312 146.546875 246.40625 C 150.003906 249.875 151.96875 251.703125 155.347656 252.09375 C 156.21875 252.195312 156.871094 251.980469 157.335938 251.441406 C 158.332031 250.28125 158.257812 247.785156 157.761719 245.953125 L 156.957031 242.972656 L 157.304688 242.875 C 157.378906 242.855469 164.789062 240.769531 167.910156 235.496094 C 171.035156 230.21875 171.328125 229.636719 171.339844 229.613281 L 171.417969 229.453125 L 171.59375 229.417969 Z M 179.679688 254.796875 C 177.792969 254.796875 176 254.519531 175.160156 254.367188 C 172.085938 253.804688 168.503906 252.628906 167.910156 251.363281 C 167.015625 249.457031 171.144531 245.167969 175.824219 240.558594 C 176.21875 240.171875 176.582031 239.816406 176.894531 239.503906 C 179.277344 237.121094 179.761719 230.359375 179.847656 228.546875 L 171.902344 230.09375 C 171.683594 230.492188 170.949219 231.785156 168.53125 235.863281 C 165.617188 240.789062 159.390625 242.988281 157.839844 243.472656 L 158.460938 245.765625 C 159.019531 247.839844 159.058594 250.546875 157.882812 251.914062 C 157.261719 252.640625 156.378906 252.941406 155.265625 252.8125 C 151.648438 252.394531 149.609375 250.503906 146.035156 246.914062 C 142.160156 243.035156 143.101562 240.386719 146.183594 236.863281 C 149.132812 233.492188 151.039062 226.664062 151.292969 225.714844 C 150.839844 224.550781 146.730469 214.339844 141.652344 211.34375 C 137.742188 209.03125 131.621094 213.1875 127.15625 216.226562 C 125.554688 217.3125 124.171875 218.25 123.117188 218.75 C 119.378906 220.511719 113.609375 219.320312 112.417969 219.042969 C 108.628906 223.113281 104.621094 222.628906 102.554688 221.972656 C 101.375 221.597656 100.691406 220.324219 101 219.074219 C 102.613281 212.542969 107.121094 197.078125 114.09375 194.585938 C 117.894531 193.222656 125.203125 187.683594 132.273438 182.328125 C 140.875 175.808594 149 169.648438 151.683594 170.222656 C 153.023438 170.511719 153.957031 170.882812 155.039062 171.3125 C 157.835938 172.429688 161.667969 173.953125 176.433594 175.695312 C 199.683594 178.4375 208.109375 190.832031 210.652344 196.03125 C 214.351562 203.597656 211.195312 215.011719 207.367188 222.488281 C 203.765625 229.53125 188.046875 250.335938 184.960938 253.347656 C 183.804688 254.476562 181.691406 254.796875 179.679688 254.796875 " fill-opacity="1" fill-rule="nonzero"/><path fill="#caddff" d="M 123.054688 200.328125 C 123.035156 200.328125 123.011719 200.328125 122.992188 200.324219 C 122.792969 200.289062 122.664062 200.097656 122.699219 199.902344 C 122.703125 199.878906 123.136719 197.429688 122.21875 196.179688 C 121.925781 195.777344 121.535156 195.550781 121.015625 195.484375 C 118.554688 195.171875 117.785156 198.308594 117.777344 198.339844 C 117.730469 198.53125 117.535156 198.652344 117.34375 198.605469 C 117.148438 198.5625 117.027344 198.367188 117.074219 198.171875 C 117.386719 196.855469 118.628906 194.449219 121.109375 194.765625 C 121.824219 194.859375 122.394531 195.191406 122.804688 195.75 C 123.902344 197.257812 123.429688 199.917969 123.410156 200.03125 C 123.378906 200.207031 123.226562 200.328125 123.054688 200.328125 " fill-opacity="1" fill-rule="nonzero"/><path fill="#caddff" d="M 171.664062 230.132812 C 171.601562 230.132812 171.539062 230.117188 171.480469 230.082031 C 171.308594 229.980469 171.253906 229.761719 171.351562 229.589844 C 178.015625 218.230469 170.320312 209.6875 170.242188 209.601562 C 170.109375 209.453125 170.117188 209.226562 170.261719 209.089844 C 170.410156 208.953125 170.636719 208.964844 170.773438 209.109375 C 170.859375 209.199219 172.851562 211.382812 174.011719 215.058594 C 175.082031 218.449219 175.59375 223.785156 171.976562 229.953125 C 171.910156 230.070312 171.789062 230.132812 171.664062 230.132812 " fill-opacity="1" fill-rule="nonzero"/><path fill="#caddff" d="M 180.628906 228.394531 L 180.492188 227.683594 C 189.148438 226 193.894531 219.332031 193.941406 219.261719 L 194.535156 219.679688 C 194.488281 219.746094 189.566406 226.65625 180.628906 228.394531 " fill-opacity="1" fill-rule="nonzero"/><path fill="#caddff" d="M 112.203125 209.410156 C 112.390625 209.722656 112.0625 210.289062 111.472656 210.667969 C 110.878906 211.046875 110.675781 210.816406 110.484375 210.5 C 110.296875 210.1875 110.195312 209.910156 110.789062 209.527344 C 111.382812 209.148438 112.015625 209.09375 112.203125 209.410156 " fill-opacity="1" fill-rule="nonzero"/><path fill="#ffffff" d="M 101.351562 219.160156 C 101.351562 219.160156 103.925781 218.25 104.648438 218.914062 C 105.371094 219.582031 103.335938 221.8125 103.335938 221.8125 C 103.335938 221.8125 100.824219 221.199219 101.351562 219.160156 " fill-opacity="1" fill-rule="nonzero"/><path fill="#ffffff" d="M 224.449219 217.324219 C 224.449219 217.324219 229.921875 238.304688 229.082031 251.761719 L 232.816406 251.761719 L 235.628906 219.160156 L 224.449219 217.324219 " fill-opacity="1" fill-rule="nonzero"/><path fill="#000000" d="M 229.46875 251.398438 L 232.484375 251.398438 L 235.242188 219.464844 L 224.933594 217.769531 C 225.765625 221.109375 230.109375 239.234375 229.46875 251.398438 Z M 232.816406 252.125 L 229.082031 252.125 C 228.984375 252.125 228.890625 252.082031 228.820312 252.007812 C 228.75 251.9375 228.71875 251.839844 228.722656 251.738281 C 229.546875 238.492188 224.152344 217.625 224.097656 217.414062 C 224.066406 217.296875 224.097656 217.171875 224.183594 217.078125 C 224.261719 216.988281 224.386719 216.945312 224.507812 216.964844 L 235.6875 218.804688 C 235.875 218.832031 236.003906 219.003906 235.988281 219.191406 L 233.175781 251.792969 C 233.160156 251.980469 233.003906 252.125 232.816406 252.125 " fill-opacity="1" fill-rule="nonzero"/><path fill="#ffffff" d="M 256.269531 174.804688 L 252.070312 180.355469 C 252.070312 180.355469 247.308594 180.402344 244.886719 181.507812 C 242.46875 182.613281 236.179688 187.480469 235.34375 189.144531 C 234.503906 190.808594 239.28125 193.367188 244.292969 191.527344 C 244.292969 191.527344 247.488281 194.894531 241.171875 196.769531 C 231.277344 199.707031 210.964844 194.765625 203.09375 198.976562 C 203.09375 198.976562 196.9375 201.3125 193.824219 204.25 C 192.085938 205.886719 194.429688 206.058594 196.84375 205.894531 C 195.484375 208.5625 195.523438 211.089844 195.421875 214.71875 C 195.246094 221.109375 190.363281 227.414062 190.265625 231.378906 C 190.238281 232.527344 190.707031 251.554688 190.707031 251.554688 L 192.472656 251.554688 C 192.472656 251.554688 192.347656 233.703125 199.882812 228.734375 L 203.75 251.554688 L 206.960938 251.554688 C 206.960938 251.554688 202.753906 231.742188 206.960938 229.546875 C 211.164062 227.351562 214.871094 226.507812 215.957031 223.992188 L 231.230469 224.171875 C 231.230469 224.171875 238.851562 239.394531 238.8125 251.554688 L 242.46875 251.554688 C 242.46875 251.554688 243.242188 236.546875 242.617188 231.378906 C 241.996094 226.214844 244.183594 221.863281 248.769531 217.324219 C 253.359375 212.789062 262.421875 208.714844 253.6875 184.011719 C 253.6875 184.011719 261.171875 182.496094 256.269531 174.804688 " fill-opacity="1" fill-rule="nonzero"/><path fill="#000000" d="M 239.171875 251.195312 L 242.125 251.195312 C 242.234375 248.925781 242.820312 236.070312 242.257812 231.425781 C 241.648438 226.378906 243.582031 221.953125 248.515625 217.070312 C 249.023438 216.570312 249.570312 216.082031 250.152344 215.570312 C 254.753906 211.5 261.050781 205.929688 253.347656 184.132812 C 253.3125 184.035156 253.320312 183.925781 253.371094 183.832031 C 253.425781 183.742188 253.511719 183.679688 253.617188 183.65625 C 253.644531 183.652344 256.382812 183.066406 257.28125 180.9375 C 257.894531 179.488281 257.542969 177.644531 256.238281 175.445312 L 252.359375 180.574219 C 252.292969 180.664062 252.1875 180.714844 252.074219 180.71875 C 252.027344 180.71875 247.355469 180.777344 245.035156 181.835938 C 242.65625 182.925781 236.460938 187.726562 235.664062 189.308594 C 235.503906 189.628906 235.71875 189.976562 235.925781 190.210938 C 237.054688 191.476562 240.542969 192.519531 244.167969 191.183594 C 244.304688 191.136719 244.453125 191.171875 244.554688 191.277344 C 244.605469 191.328125 245.78125 192.59375 245.378906 194.105469 C 245.03125 195.398438 243.652344 196.410156 241.277344 197.117188 C 236.632812 198.496094 229.691406 198.160156 222.976562 197.835938 C 215.320312 197.464844 207.402344 197.082031 203.261719 199.292969 C 203.25 199.300781 203.234375 199.308594 203.21875 199.3125 C 203.160156 199.335938 197.097656 201.664062 194.070312 204.515625 C 193.609375 204.949219 193.5625 205.171875 193.585938 205.222656 C 193.597656 205.246094 193.847656 205.738281 196.820312 205.53125 C 196.949219 205.523438 197.074219 205.585938 197.144531 205.695312 C 197.21875 205.800781 197.222656 205.941406 197.164062 206.054688 C 195.941406 208.457031 195.882812 210.757812 195.804688 213.9375 L 195.785156 214.726562 C 195.683594 218.367188 194.101562 221.945312 192.707031 225.097656 C 191.613281 227.574219 190.667969 229.710938 190.628906 231.390625 C 190.601562 232.429688 190.996094 248.585938 191.058594 251.195312 L 192.113281 251.195312 C 192.132812 248.546875 192.582031 233.113281 199.683594 228.433594 C 199.785156 228.367188 199.914062 228.355469 200.027344 228.402344 C 200.136719 228.453125 200.21875 228.554688 200.238281 228.675781 L 204.054688 251.195312 L 206.511719 251.195312 C 205.8125 247.765625 202.691406 231.367188 206.792969 229.226562 C 207.996094 228.597656 209.183594 228.070312 210.230469 227.601562 C 212.839844 226.4375 214.90625 225.519531 215.628906 223.847656 C 215.6875 223.714844 215.816406 223.632812 215.964844 223.628906 L 231.234375 223.808594 C 231.371094 223.8125 231.492188 223.886719 231.554688 224.007812 C 231.628906 224.160156 239.0625 239.148438 239.171875 251.195312 Z M 242.46875 251.917969 L 238.8125 251.917969 C 238.71875 251.917969 238.625 251.878906 238.554688 251.8125 C 238.488281 251.742188 238.449219 251.652344 238.453125 251.554688 C 238.484375 240.359375 231.886719 226.351562 231.003906 224.53125 L 216.1875 224.355469 C 215.285156 226.140625 213.171875 227.082031 210.523438 228.261719 C 209.4375 228.746094 208.3125 229.25 207.125 229.867188 C 203.878906 231.5625 206.160156 246.042969 207.3125 251.480469 C 207.335938 251.585938 207.308594 251.699219 207.238281 251.785156 C 207.171875 251.867188 207.066406 251.917969 206.957031 251.917969 L 203.75 251.917969 C 203.574219 251.917969 203.421875 251.789062 203.394531 251.617188 L 199.621094 229.363281 C 192.792969 234.585938 192.832031 251.382812 192.832031 251.554688 C 192.832031 251.648438 192.796875 251.742188 192.730469 251.8125 C 192.660156 251.878906 192.566406 251.917969 192.472656 251.917969 L 190.707031 251.917969 C 190.511719 251.917969 190.347656 251.761719 190.34375 251.566406 C 190.324219 250.789062 189.875 232.515625 189.902344 231.371094 C 189.949219 229.550781 190.921875 227.351562 192.046875 224.804688 C 193.414062 221.710938 194.964844 218.207031 195.0625 214.707031 L 195.082031 213.921875 C 195.160156 210.882812 195.214844 208.628906 196.253906 206.289062 C 193.671875 206.398438 193.113281 205.941406 192.925781 205.511719 C 192.640625 204.867188 193.34375 204.203125 193.574219 203.984375 C 196.644531 201.09375 202.476562 198.824219 202.941406 198.644531 C 207.261719 196.347656 214.910156 196.71875 223.011719 197.113281 C 229.664062 197.433594 236.546875 197.765625 241.070312 196.425781 C 243.15625 195.804688 244.402344 194.9375 244.679688 193.921875 C 244.90625 193.082031 244.425781 192.292969 244.171875 191.953125 C 240.167969 193.324219 236.578125 192.027344 235.386719 190.691406 C 234.882812 190.121094 234.75 189.515625 235.019531 188.980469 C 235.941406 187.152344 242.4375 182.230469 244.738281 181.179688 C 246.957031 180.164062 250.980469 180.015625 251.886719 179.996094 L 255.980469 174.585938 C 256.054688 174.492188 256.164062 174.4375 256.285156 174.441406 C 256.402344 174.449219 256.511719 174.507812 256.574219 174.609375 C 258.238281 177.222656 258.699219 179.445312 257.945312 181.222656 C 257.109375 183.195312 255.035156 184 254.160156 184.261719 C 261.824219 206.210938 255.359375 211.929688 250.632812 216.109375 C 250.058594 216.617188 249.515625 217.097656 249.023438 217.582031 C 244.261719 222.292969 242.398438 226.535156 242.976562 231.335938 C 243.597656 236.476562 242.859375 250.960938 242.828125 251.574219 C 242.820312 251.765625 242.660156 251.917969 242.46875 251.917969 " fill-opacity="1" fill-rule="nonzero"/><path fill="#000000" d="M 199.882812 229.097656 C 199.707031 229.097656 199.554688 228.972656 199.527344 228.796875 C 199 225.707031 203.914062 221.976562 205.046875 221.164062 L 200.363281 206.605469 C 200.300781 206.414062 200.40625 206.210938 200.59375 206.148438 C 200.785156 206.089844 200.988281 206.195312 201.050781 206.382812 L 205.816406 221.195312 C 205.863281 221.347656 205.808594 221.515625 205.675781 221.605469 C 205.613281 221.644531 199.734375 225.714844 200.238281 228.675781 C 200.269531 228.871094 200.136719 229.058594 199.941406 229.089844 C 199.921875 229.09375 199.902344 229.097656 199.882812 229.097656 " fill-opacity="1" fill-rule="nonzero"/><path fill="#000000" d="M 196.84375 206.253906 C 196.679688 206.253906 196.53125 206.144531 196.492188 205.980469 C 196.445312 205.785156 196.5625 205.589844 196.757812 205.542969 C 196.78125 205.535156 199.039062 204.96875 200.542969 204.203125 C 200.71875 204.113281 200.9375 204.183594 201.027344 204.359375 C 201.117188 204.539062 201.046875 204.757812 200.871094 204.847656 C 199.289062 205.652344 197.027344 206.21875 196.929688 206.242188 C 196.902344 206.25 196.871094 206.253906 196.84375 206.253906 " fill-opacity="1" fill-rule="nonzero"/><path fill="#000000" d="M 246.613281 184.710938 C 246.140625 184.128906 244.429688 186.496094 244.429688 186.496094 C 244.429688 186.496094 247.839844 186.203125 246.613281 184.710938 " fill-opacity="1" fill-rule="nonzero"/><path fill="#000000" d="M 247.828125 180.351562 C 247.828125 180.351562 244.277344 178.128906 243.730469 172.5625 C 243.183594 166.996094 240.78125 174 243.4375 177.542969 C 246.089844 181.085938 239.0625 177.417969 237.773438 172.550781 C 236.488281 167.691406 235.296875 173.84375 237.351562 176.25 C 239.40625 178.65625 231.707031 171.890625 233.214844 165.183594 C 234.726562 158.476562 236.726562 158.449219 236.179688 157.410156 C 235.628906 156.375 231.402344 157.339844 230.941406 161.433594 C 230.480469 165.53125 231.835938 169.160156 230.8125 169.113281 C 229.792969 169.070312 228.246094 167.261719 228.203125 162.511719 C 228.160156 157.757812 227.386719 157.074219 226.1875 157.71875 C 224.984375 158.363281 224.371094 163.46875 227.039062 166.527344 C 229.707031 169.589844 229.492188 169.828125 227.925781 169.40625 C 226.359375 168.984375 227.390625 172.601562 231.230469 175.1875 C 235.070312 177.773438 239.945312 182.3125 247.828125 180.351562 " fill-opacity="1" fill-rule="nonzero"/><path fill="#000000" d="M 249.742188 180.355469 C 249.742188 180.355469 253.296875 178.128906 253.84375 172.5625 C 254.390625 167 256.792969 174 254.136719 177.542969 C 251.484375 181.085938 258.511719 177.417969 259.796875 172.554688 C 261.085938 167.691406 262.277344 173.84375 260.222656 176.25 C 258.167969 178.660156 265.867188 171.890625 264.355469 165.183594 C 262.847656 158.476562 260.84375 158.449219 261.394531 157.414062 C 261.945312 156.375 266.167969 157.339844 266.632812 161.433594 C 267.09375 165.53125 265.734375 169.160156 266.757812 169.117188 C 267.78125 169.070312 269.328125 167.265625 269.371094 162.511719 C 269.414062 157.757812 270.183594 157.078125 271.386719 157.71875 C 272.585938 158.363281 273.203125 163.46875 270.535156 166.527344 C 267.867188 169.589844 268.082031 169.832031 269.648438 169.410156 C 271.214844 168.984375 270.183594 172.605469 266.34375 175.191406 C 262.503906 177.773438 257.628906 182.3125 249.742188 180.355469 " fill-opacity="1" fill-rule="nonzero"/><path fill="#5479f7" d="M 185.722656 247.601562 L 184.714844 247.601562 L 184.714844 251.523438 C 184.714844 251.699219 184.585938 251.851562 184.410156 251.871094 C 183.117188 252.042969 182.101562 251.652344 179.515625 251.230469 C 179.484375 251.84375 177.261719 252.320312 175.972656 252.746094 C 175.804688 252.800781 175.75 253.011719 175.871094 253.144531 C 176.367188 253.707031 176.691406 254.339844 176.71875 255.09375 C 176.722656 255.203125 176.808594 255.285156 176.914062 255.292969 C 178.402344 255.386719 179.339844 254.949219 179.722656 256.039062 L 185.226562 252.808594 C 185.453125 252.632812 185.585938 252.359375 185.578125 252.066406 C 185.554688 250.871094 185.722656 247.601562 185.722656 247.601562 " fill-opacity="1" fill-rule="nonzero"/><path fill="#99b9ff" d="M 208.25 241.4375 C 193.148438 238.734375 191.910156 228.945312 182.410156 228.945312 C 181.144531 228.945312 179.996094 228.996094 178.960938 229.105469 C 178.671875 229.132812 178.414062 228.914062 178.394531 228.621094 C 178.253906 226.484375 179.191406 222.285156 179.835938 218.644531 L 174.578125 220.332031 L 170.269531 233.390625 C 169.957031 234.523438 169.417969 237.296875 169.542969 238.792969 C 170.101562 245.433594 177.859375 250.890625 187.359375 250.890625 C 196.859375 250.890625 214.867188 242.621094 208.25 241.4375 " fill-opacity="1" fill-rule="nonzero"/><path fill="#99b9ff" d="M 180.507812 216.703125 C 180.507812 219.050781 178.617188 220.953125 176.285156 220.953125 C 173.953125 220.953125 171.390625 219.699219 171.390625 217.351562 C 171.390625 215.003906 173.953125 212.453125 176.285156 212.453125 C 178.617188 212.453125 180.507812 214.359375 180.507812 216.703125 " fill-opacity="1" fill-rule="nonzero"/><path fill="#ffffff" d="M 179.617188 218.867188 L 174.578125 220.332031 L 172.308594 227.210938 C 174.453125 227.113281 176.6875 226.800781 178.5625 225.894531 C 178.847656 223.75 179.1875 221.292969 179.617188 218.867188 " fill-opacity="1" fill-rule="nonzero"/><path fill="#ffffff" d="M 172.308594 227.574219 C 172.113281 227.574219 171.949219 227.414062 171.945312 227.21875 C 171.945312 227.019531 172.105469 226.851562 172.304688 226.851562 C 174.664062 226.816406 176.660156 226.394531 178.410156 225.566406 C 178.589844 225.480469 178.804688 225.558594 178.890625 225.742188 C 178.976562 225.921875 178.898438 226.136719 178.71875 226.222656 C 176.875 227.09375 174.78125 227.535156 172.316406 227.574219 C 172.3125 227.574219 172.3125 227.574219 172.308594 227.574219 " fill-opacity="1" fill-rule="nonzero"/><path fill="#caddff" d="M 178.988281 238.289062 C 182.292969 240.535156 187.21875 241.957031 193.066406 242.578125 C 193.371094 242.609375 192.019531 241.039062 192.328125 241.066406 C 192.632812 241.09375 194.59375 242.722656 194.902344 242.746094 C 195.585938 242.796875 196.28125 242.839844 196.988281 242.871094 C 197.320312 242.886719 195.949219 241.867188 196.289062 241.875 C 196.785156 241.890625 198.996094 242.933594 199.5 242.941406 C 203.179688 242.980469 207.082031 242.753906 211.078125 242.277344 C 201.878906 238.4375 191.566406 234.0625 186.40625 231.109375 C 184.636719 230.097656 180.417969 229.714844 178.800781 230.921875 C 177.425781 231.953125 177.039062 233.238281 177.226562 235.351562 C 177.328125 236.519531 177.972656 237.597656 178.988281 238.289062 " fill-opacity="1" fill-rule="nonzero"/><path fill="#5479f7" d="M 170.988281 217.652344 C 169.9375 219.363281 168.839844 220.984375 167.828125 222.039062 C 167.683594 222.1875 167.78125 222.4375 167.988281 222.453125 C 169.375 222.550781 171.632812 221.457031 173.582031 220.382812 C 173.71875 220.304688 173.703125 220.105469 173.554688 220.050781 C 172.695312 219.726562 172.136719 218.871094 171.753906 217.742188 C 171.636719 217.398438 171.175781 217.34375 170.988281 217.652344 " fill-opacity="1" fill-rule="nonzero"/><path fill="#000000" d="M 176.285156 212.816406 C 174.125 212.816406 171.75 215.191406 171.75 217.351562 C 171.75 218.726562 172.800781 219.847656 174.558594 220.351562 C 174.652344 220.378906 174.730469 220.441406 174.777344 220.527344 C 174.824219 220.613281 174.832031 220.71875 174.800781 220.8125 L 170.613281 233.503906 C 170.320312 234.570312 169.78125 237.316406 169.902344 238.761719 C 170.167969 241.886719 172.085938 244.824219 175.304688 247.035156 C 178.585938 249.289062 182.867188 250.53125 187.359375 250.53125 C 195.246094 250.53125 208.511719 244.914062 209.289062 242.53125 C 209.328125 242.410156 209.429688 242.320312 209.550781 242.289062 C 209.6875 242.261719 209.816406 242.230469 209.949219 242.199219 C 204.496094 239.917969 198.875 237.535156 194.132812 235.359375 C 194.105469 235.347656 194.082031 235.332031 194.058594 235.316406 C 193.5 234.871094 192.964844 234.429688 192.449219 234 C 189.273438 231.378906 186.769531 229.304688 182.410156 229.304688 C 181.15625 229.304688 180.011719 229.359375 178.996094 229.460938 C 178.757812 229.488281 178.527344 229.414062 178.34375 229.261719 C 178.160156 229.105469 178.050781 228.886719 178.035156 228.644531 C 177.921875 226.917969 178.464844 224.023438 179.042969 220.957031 C 179.160156 220.324219 179.28125 219.6875 179.394531 219.066406 C 179.402344 219.015625 179.421875 218.96875 179.453125 218.925781 C 179.90625 218.273438 180.144531 217.503906 180.144531 216.703125 C 180.144531 214.558594 178.414062 212.816406 176.285156 212.816406 Z M 187.359375 251.253906 C 177.753906 251.253906 169.769531 245.792969 169.183594 238.824219 C 169.054688 237.269531 169.601562 234.453125 169.921875 233.292969 L 174 220.933594 C 172.132812 220.285156 171.027344 218.96875 171.027344 217.351562 C 171.027344 214.796875 173.730469 212.09375 176.285156 212.09375 C 178.8125 212.09375 180.867188 214.160156 180.867188 216.703125 C 180.867188 217.625 180.601562 218.511719 180.089844 219.273438 C 179.980469 219.871094 179.867188 220.480469 179.753906 221.089844 C 179.210938 223.976562 178.648438 226.964844 178.757812 228.597656 C 178.761719 228.65625 178.792969 228.691406 178.8125 228.710938 C 178.832031 228.726562 178.871094 228.75 178.921875 228.742188 C 179.960938 228.636719 181.132812 228.582031 182.410156 228.582031 C 187.027344 228.582031 189.753906 230.835938 192.90625 233.445312 C 193.410156 233.859375 193.933594 234.289062 194.472656 234.722656 C 199.484375 237.019531 205.480469 239.550781 211.214844 241.941406 C 211.355469 242.003906 211.445312 242.144531 211.4375 242.300781 C 211.429688 242.453125 211.320312 242.582031 211.175781 242.625 C 210.769531 242.742188 210.339844 242.851562 209.894531 242.953125 C 209.09375 244.582031 204.953125 246.660156 201.234375 248.09375 C 196.117188 250.074219 190.929688 251.253906 187.359375 251.253906 " fill-opacity="1" fill-rule="nonzero"/><path fill="#5479f7" d="M 189.476562 249.203125 C 189.09375 249.203125 188.785156 249.515625 188.785156 249.898438 L 188.785156 253.128906 C 188.785156 253.304688 188.65625 253.453125 188.480469 253.476562 C 187.1875 253.644531 183.949219 253.972656 181.359375 253.550781 C 181.332031 254.167969 181.332031 253.921875 180.046875 254.351562 C 179.875 254.40625 179.820312 254.617188 179.941406 254.75 C 180.4375 255.3125 180.761719 255.945312 180.789062 256.699219 C 180.789062 256.804688 180.878906 256.890625 180.984375 256.894531 C 182.472656 256.988281 183.703125 257.3125 184.085938 258.40625 L 189.292969 254.414062 C 189.523438 254.238281 189.65625 253.960938 189.648438 253.671875 C 189.628906 252.699219 189.734375 250.367188 189.777344 249.519531 C 189.785156 249.347656 189.648438 249.203125 189.476562 249.203125 " fill-opacity="1" fill-rule="nonzero"/><path fill="#99b9ff" d="M 170.347656 219.90625 C 170.644531 219.890625 170.886719 219.625 171.085938 219.152344 C 171.109375 219.085938 171.042969 219.023438 170.980469 219.054688 C 170.625 219.246094 170.382812 219.507812 170.347656 219.90625 " fill-opacity="1" fill-rule="nonzero"/><path fill="#000000" d="M 196.609375 243.367188 C 196.582031 243.367188 196.554688 243.367188 196.53125 243.359375 C 194.855469 242.980469 193.585938 242.210938 192.605469 241.457031 C 192.703125 241.761719 192.851562 242.066406 193.058594 242.375 C 193.136719 242.492188 193.136719 242.640625 193.066406 242.761719 C 192.992188 242.882812 192.859375 242.953125 192.71875 242.933594 C 184.5 242.0625 179.550781 240.21875 177.585938 237.304688 C 176.597656 235.839844 176.382812 234.101562 176.945312 232.140625 C 177 231.945312 177.199219 231.835938 177.390625 231.890625 C 177.582031 231.945312 177.695312 232.144531 177.640625 232.339844 C 177.132812 234.109375 177.3125 235.601562 178.183594 236.898438 C 179.941406 239.507812 184.621094 241.269531 192.097656 242.140625 C 191.863281 241.632812 191.75 241.109375 191.753906 240.582031 C 191.753906 240.441406 191.835938 240.3125 191.964844 240.253906 C 192.09375 240.195312 192.246094 240.21875 192.351562 240.308594 C 193.203125 241.050781 194.351562 241.925781 195.910156 242.4375 L 195.484375 241.609375 C 195.410156 241.46875 195.441406 241.292969 195.558594 241.183594 C 195.675781 241.070312 195.851562 241.050781 195.988281 241.132812 C 198.585938 242.644531 203.355469 242.429688 208.410156 242.207031 L 209.4375 242.160156 C 209.632812 242.152344 209.804688 242.308594 209.8125 242.507812 C 209.820312 242.707031 209.667969 242.875 209.46875 242.882812 L 208.441406 242.929688 C 203.847656 243.132812 199.480469 243.328125 196.617188 242.226562 L 196.929688 242.839844 C 196.996094 242.964844 196.980469 243.117188 196.894531 243.226562 C 196.828125 243.316406 196.71875 243.367188 196.609375 243.367188 " fill-opacity="1" fill-rule="nonzero"/><path fill="#ffffff" d="M 262.933594 260.292969 C 258.890625 265.601562 254.902344 270.316406 251.734375 273.171875 C 250.246094 274.515625 248.40625 275.90625 246.257812 277.296875 L 228.871094 272.300781 C 226.992188 271.769531 221.273438 274.015625 219.484375 274.738281 L 200.941406 282.394531 C 200.796875 282.453125 198.199219 283.167969 198.050781 283.21875 C 191.074219 285.761719 184.078125 282.75 180.503906 281.285156 C 170.683594 277.59375 158.449219 271.796875 146.347656 262.617188 C 141.542969 258.96875 137.429688 255.300781 133.925781 251.800781 C 133.496094 251.53125 133.328125 251.046875 133.496094 250.609375 C 134.9375 246.859375 138.519531 245.898438 142.554688 247.453125 C 145.132812 248.441406 147.554688 249.703125 149.808594 251.164062 L 158.996094 257.132812 L 166.140625 260.359375 C 167.546875 256.679688 174.039062 257.960938 178.515625 257.644531 L 193.726562 256.632812 L 207.648438 250.402344 C 213.527344 247.769531 220.382812 247.292969 226.671875 249.085938 L 241.714844 254.59375 L 262.933594 260.292969 " fill-opacity="1" fill-rule="nonzero"/><path fill="#000000" d="M 183.796875 269.089844 C 182.097656 269.089844 180.507812 269.011719 179.015625 268.847656 C 173.410156 268.234375 169.257812 266.46875 166.664062 263.601562 C 166.53125 263.453125 166.542969 263.222656 166.691406 263.089844 C 166.835938 262.953125 167.066406 262.964844 167.199219 263.117188 C 172.238281 268.695312 183.714844 269.84375 200.390625 266.4375 C 200.585938 266.398438 200.777344 266.523438 200.816406 266.71875 C 200.859375 266.914062 200.730469 267.105469 200.535156 267.144531 C 194.203125 268.441406 188.59375 269.089844 183.796875 269.089844 " fill-opacity="1" fill-rule="nonzero"/><path fill="#000000" d="M 192.285156 284.570312 C 187.542969 284.570312 183.277344 282.816406 180.632812 281.726562 L 180.363281 281.621094 C 167.773438 276.882812 156.253906 270.585938 146.128906 262.90625 C 141.722656 259.5625 137.539062 255.921875 133.699219 252.085938 C 133.152344 251.722656 132.933594 251.066406 133.15625 250.480469 C 134.609375 246.703125 138.261719 245.410156 142.683594 247.113281 C 145.203125 248.082031 147.667969 249.34375 150.003906 250.859375 L 159.167969 256.8125 L 165.957031 259.878906 C 167.289062 257.214844 171.207031 257.269531 175.003906 257.324219 C 176.246094 257.34375 177.417969 257.359375 178.492188 257.285156 L 193.636719 256.273438 L 207.503906 250.070312 C 213.417969 247.421875 220.441406 246.9375 226.769531 248.738281 C 226.777344 248.738281 226.785156 248.742188 226.792969 248.746094 L 241.824219 254.25 L 263.027344 259.941406 C 263.21875 259.996094 263.332031 260.191406 263.28125 260.386719 C 263.230469 260.578125 263.03125 260.691406 262.839844 260.640625 L 241.621094 254.945312 C 241.613281 254.941406 241.601562 254.9375 241.589844 254.9375 L 226.558594 249.429688 C 220.394531 247.675781 213.558594 248.152344 207.796875 250.730469 L 193.875 256.960938 C 193.835938 256.980469 193.792969 256.988281 193.75 256.992188 L 178.539062 258.007812 C 177.4375 258.085938 176.195312 258.066406 174.992188 258.050781 C 171.285156 257.996094 167.453125 257.941406 166.476562 260.488281 C 166.445312 260.582031 166.371094 260.65625 166.277344 260.695312 C 166.1875 260.730469 166.082031 260.730469 165.992188 260.6875 L 158.847656 257.460938 C 158.832031 257.453125 158.8125 257.445312 158.800781 257.4375 L 149.609375 251.464844 C 147.316406 249.976562 144.898438 248.742188 142.425781 247.789062 C 138.355469 246.222656 135.144531 247.328125 133.832031 250.742188 C 133.722656 251.019531 133.835938 251.316406 134.117188 251.496094 C 134.140625 251.511719 134.164062 251.527344 134.179688 251.546875 C 138.007812 255.371094 142.175781 258.996094 146.566406 262.328125 C 156.632812 269.96875 168.09375 276.230469 180.628906 280.945312 L 180.90625 281.058594 C 184.523438 282.546875 191.253906 285.3125 197.925781 282.878906 C 198 282.851562 198.351562 282.753906 199.203125 282.515625 C 199.839844 282.335938 200.710938 282.089844 200.8125 282.054688 L 219.347656 274.40625 C 222.78125 273.011719 227.234375 271.460938 228.96875 271.953125 L 246.359375 276.949219 C 246.550781 277.003906 246.660156 277.207031 246.605469 277.398438 C 246.550781 277.589844 246.347656 277.699219 246.160156 277.644531 L 228.769531 272.652344 C 227.609375 272.320312 224.183594 273.226562 219.621094 275.074219 L 201.078125 282.726562 C 200.992188 282.761719 200.582031 282.878906 199.398438 283.210938 C 198.855469 283.363281 198.246094 283.535156 198.171875 283.558594 C 196.179688 284.285156 194.195312 284.570312 192.285156 284.570312 " fill-opacity="1" fill-rule="nonzero"/><path fill="#caddff" d="M 92.996094 152.175781 C 94.359375 151.558594 95.957031 152.195312 96.558594 153.601562 C 97.160156 155.003906 96.539062 156.640625 95.171875 157.257812 C 93.804688 157.875 92.210938 157.238281 91.609375 155.835938 C 91.007812 154.433594 91.628906 152.792969 92.996094 152.175781 " fill-opacity="1" fill-rule="nonzero"/><path fill="#000000" d="M 121.949219 262.644531 C 121.796875 262.644531 121.65625 262.550781 121.605469 262.398438 L 120.988281 260.558594 C 120.925781 260.371094 121.027344 260.164062 121.21875 260.101562 C 121.40625 260.039062 121.613281 260.140625 121.675781 260.332031 L 122.289062 262.167969 C 122.351562 262.355469 122.25 262.5625 122.0625 262.625 C 122.023438 262.636719 121.984375 262.644531 121.949219 262.644531 " fill-opacity="1" fill-rule="nonzero"/><path fill="#000000" d="M 123.328125 266.78125 C 123.179688 266.78125 123.039062 266.683594 122.988281 266.53125 L 122.371094 264.695312 C 122.308594 264.503906 122.410156 264.300781 122.601562 264.238281 C 122.789062 264.171875 122.996094 264.273438 123.058594 264.464844 L 123.671875 266.304688 C 123.734375 266.492188 123.632812 266.695312 123.445312 266.761719 C 123.40625 266.773438 123.367188 266.78125 123.328125 266.78125 " fill-opacity="1" fill-rule="nonzero"/><path fill="#000000" d="M 119.515625 264.875 C 119.363281 264.875 119.222656 264.777344 119.171875 264.628906 C 119.109375 264.4375 119.210938 264.234375 119.398438 264.167969 L 121.226562 263.550781 C 121.414062 263.488281 121.621094 263.589844 121.683594 263.777344 C 121.75 263.96875 121.648438 264.171875 121.457031 264.238281 L 119.632812 264.855469 C 119.59375 264.867188 119.554688 264.875 119.515625 264.875 " fill-opacity="1" fill-rule="nonzero"/><path fill="#000000" d="M 123.625 263.484375 C 123.476562 263.484375 123.335938 263.386719 123.28125 263.238281 C 123.21875 263.046875 123.320312 262.84375 123.507812 262.777344 L 125.335938 262.160156 C 125.523438 262.097656 125.730469 262.199219 125.792969 262.386719 C 125.859375 262.578125 125.757812 262.78125 125.566406 262.847656 L 123.742188 263.464844 C 123.703125 263.476562 123.664062 263.484375 123.625 263.484375 " fill-opacity="1" fill-rule="nonzero"/><path fill="#000000" d="M 276.589844 143.878906 C 276.445312 143.878906 276.3125 143.792969 276.253906 143.652344 C 274.816406 140.089844 273.097656 136.589844 271.140625 133.253906 C 263.398438 120.050781 252.097656 109.53125 238.460938 102.835938 C 238.28125 102.746094 238.207031 102.53125 238.292969 102.351562 C 238.382812 102.171875 238.597656 102.097656 238.777344 102.1875 C 252.542969 108.941406 263.949219 119.558594 271.765625 132.890625 C 273.738281 136.253906 275.476562 139.785156 276.925781 143.382812 C 277 143.566406 276.910156 143.777344 276.722656 143.851562 C 276.679688 143.871094 276.636719 143.878906 276.589844 143.878906 " fill-opacity="1" fill-rule="nonzero"/><path fill="#000000" d="M 277.253906 135 C 277.121094 135 276.996094 134.929688 276.933594 134.808594 C 269.859375 121.316406 259.5 109.847656 246.972656 101.636719 C 246.804688 101.527344 246.757812 101.300781 246.867188 101.132812 C 246.976562 100.96875 247.203125 100.921875 247.367188 101.03125 C 259.996094 109.308594 270.441406 120.871094 277.570312 134.472656 C 277.664062 134.648438 277.597656 134.867188 277.417969 134.960938 C 277.367188 134.988281 277.308594 135 277.253906 135 " fill-opacity="1" fill-rule="nonzero"/><path fill="#000000" d="M 272.414062 188.339844 C 272.214844 188.339844 272.054688 188.179688 272.054688 187.980469 L 272.050781 186.484375 C 272.050781 186.285156 272.214844 186.125 272.414062 186.125 C 272.613281 186.125 272.777344 186.285156 272.777344 186.484375 L 272.777344 187.980469 C 272.777344 188.179688 272.617188 188.339844 272.414062 188.339844 " fill-opacity="1" fill-rule="nonzero"/><path fill="#000000" d="M 272.414062 183.117188 C 272.214844 183.117188 272.050781 182.953125 272.050781 182.753906 L 272.050781 181.261719 C 272.050781 181.0625 272.210938 180.898438 272.414062 180.898438 C 272.613281 180.898438 272.773438 181.0625 272.773438 181.261719 L 272.773438 182.753906 C 272.773438 182.953125 272.613281 183.117188 272.414062 183.117188 " fill-opacity="1" fill-rule="nonzero"/><path fill="#000000" d="M 275.753906 184.984375 L 274.269531 184.980469 C 274.070312 184.980469 273.90625 184.820312 273.90625 184.621094 C 273.90625 184.417969 274.070312 184.257812 274.269531 184.257812 L 275.753906 184.261719 C 275.953125 184.261719 276.113281 184.421875 276.113281 184.621094 C 276.113281 184.820312 275.953125 184.984375 275.753906 184.984375 " fill-opacity="1" fill-rule="nonzero"/><path fill="#000000" d="M 270.558594 184.980469 L 269.078125 184.980469 C 268.875 184.980469 268.714844 184.816406 268.714844 184.617188 C 268.714844 184.417969 268.878906 184.257812 269.078125 184.257812 L 270.558594 184.257812 C 270.761719 184.257812 270.921875 184.417969 270.921875 184.617188 C 270.921875 184.816406 270.757812 184.980469 270.558594 184.980469 " fill-opacity="1" fill-rule="nonzero"/><path fill="#000000" d="M 227.679688 102.035156 C 227.585938 102.035156 227.496094 102 227.425781 101.929688 C 227.285156 101.789062 227.28125 101.5625 227.421875 101.417969 L 228.472656 100.363281 C 228.613281 100.222656 228.839844 100.222656 228.980469 100.363281 C 229.125 100.503906 229.125 100.734375 228.984375 100.875 L 227.9375 101.929688 C 227.863281 102 227.773438 102.035156 227.679688 102.035156 " fill-opacity="1" fill-rule="nonzero"/><path fill="#000000" d="M 231.347656 98.339844 C 231.257812 98.339844 231.164062 98.304688 231.097656 98.234375 C 230.953125 98.09375 230.953125 97.863281 231.09375 97.722656 L 232.140625 96.667969 C 232.285156 96.523438 232.511719 96.523438 232.652344 96.664062 C 232.796875 96.804688 232.796875 97.035156 232.65625 97.175781 L 231.605469 98.234375 C 231.535156 98.304688 231.441406 98.339844 231.347656 98.339844 " fill-opacity="1" fill-rule="nonzero"/><path fill="#000000" d="M 232.398438 102.035156 C 232.304688 102.035156 232.214844 102 232.140625 101.929688 L 231.09375 100.875 C 230.953125 100.734375 230.953125 100.503906 231.09375 100.363281 C 231.234375 100.222656 231.464844 100.222656 231.605469 100.363281 L 232.652344 101.417969 C 232.796875 101.5625 232.796875 101.789062 232.652344 101.929688 C 232.582031 102 232.492188 102.035156 232.398438 102.035156 " fill-opacity="1" fill-rule="nonzero"/><path fill="#000000" d="M 228.730469 98.339844 C 228.636719 98.339844 228.542969 98.304688 228.472656 98.234375 L 227.421875 97.175781 C 227.28125 97.035156 227.285156 96.804688 227.425781 96.664062 C 227.566406 96.523438 227.792969 96.523438 227.9375 96.667969 L 228.984375 97.722656 C 229.125 97.863281 229.125 98.09375 228.984375 98.234375 C 228.914062 98.304688 228.820312 98.339844 228.730469 98.339844 " fill-opacity="1" fill-rule="nonzero"/><path fill="#caddff" d="M 279.558594 150.960938 C 279.957031 147.988281 283.75 147.988281 284.148438 150.960938 C 283.75 153.933594 279.957031 153.933594 279.558594 150.960938 " fill-opacity="1" fill-rule="nonzero"/><path fill="#ffffff" d="M 133.960938 273.960938 C 134.359375 270.988281 138.15625 270.988281 138.554688 273.960938 C 138.15625 276.9375 134.363281 276.933594 133.960938 273.960938 " fill-opacity="1" fill-rule="nonzero"/><path fill="#ffffff" d="M 218.164062 106.320312 C 218.164062 108.085938 216.742188 109.515625 214.988281 109.515625 C 213.234375 109.515625 211.8125 108.085938 211.8125 106.320312 C 211.8125 104.554688 213.234375 103.125 214.988281 103.125 C 216.742188 103.125 218.164062 104.554688 218.164062 106.320312 " fill-opacity="1" fill-rule="nonzero"/><path fill="#000000" d="M 106.71875 128.832031 C 106.582031 128.832031 106.453125 128.757812 106.390625 128.628906 C 106.304688 128.449219 106.378906 128.234375 106.558594 128.148438 L 107.964844 127.457031 C 108.144531 127.371094 108.359375 127.445312 108.449219 127.625 C 108.535156 127.804688 108.460938 128.019531 108.285156 128.105469 L 106.875 128.796875 C 106.824219 128.820312 106.769531 128.832031 106.71875 128.832031 " fill-opacity="1" fill-rule="nonzero"/><path fill="#000000" d="M 109.996094 127.230469 C 109.863281 127.230469 109.734375 127.15625 109.671875 127.027344 C 109.582031 126.847656 109.65625 126.628906 109.835938 126.542969 L 111.242188 125.855469 C 111.421875 125.765625 111.640625 125.839844 111.726562 126.019531 C 111.816406 126.199219 111.742188 126.417969 111.5625 126.503906 L 110.152344 127.191406 C 110.101562 127.21875 110.050781 127.230469 109.996094 127.230469 " fill-opacity="1" fill-rule="nonzero"/><path fill="#000000" d="M 110.199219 130.042969 C 110.066406 130.042969 109.9375 129.96875 109.875 129.839844 L 109.191406 128.425781 C 109.101562 128.242188 109.175781 128.027344 109.355469 127.941406 C 109.535156 127.855469 109.753906 127.929688 109.839844 128.109375 L 110.523438 129.523438 C 110.609375 129.703125 110.535156 129.921875 110.355469 130.007812 C 110.304688 130.03125 110.253906 130.042969 110.199219 130.042969 " fill-opacity="1" fill-rule="nonzero"/><path fill="#000000" d="M 108.605469 126.746094 C 108.472656 126.746094 108.34375 126.671875 108.28125 126.539062 L 107.59375 125.125 C 107.507812 124.945312 107.582031 124.730469 107.761719 124.640625 C 107.941406 124.554688 108.160156 124.628906 108.246094 124.808594 L 108.929688 126.226562 C 109.015625 126.40625 108.941406 126.621094 108.761719 126.710938 C 108.710938 126.734375 108.65625 126.746094 108.605469 126.746094 " fill-opacity="1" fill-rule="nonzero"/><path fill="#000000" d="M 103.226562 135.636719 C 103.03125 135.636719 102.835938 135.691406 102.660156 135.800781 C 102.421875 135.953125 102.257812 136.183594 102.195312 136.453125 C 102.136719 136.71875 102.1875 136.988281 102.332031 137.21875 C 102.640625 137.695312 103.289062 137.835938 103.777344 137.527344 C 104.015625 137.375 104.179688 137.144531 104.242188 136.875 C 104.296875 136.609375 104.25 136.335938 104.101562 136.109375 C 103.90625 135.804688 103.570312 135.636719 103.226562 135.636719 Z M 103.214844 138.414062 C 102.632812 138.414062 102.0625 138.128906 101.726562 137.609375 C 101.472656 137.21875 101.390625 136.753906 101.492188 136.296875 C 101.59375 135.835938 101.871094 135.441406 102.273438 135.191406 C 103.09375 134.671875 104.1875 134.90625 104.710938 135.71875 C 104.964844 136.109375 105.046875 136.574219 104.945312 137.03125 C 104.84375 137.492188 104.566406 137.882812 104.164062 138.140625 C 103.871094 138.324219 103.539062 138.414062 103.214844 138.414062 " fill-opacity="1" fill-rule="nonzero"/></svg>